<?xml version="1.0" encoding="UTF-8"?>
<svg id="Layer_1" data-name="Layer 1" xmlns="http://www.w3.org/2000/svg" xmlns:xlink="http://www.w3.org/1999/xlink" viewBox="0 0 1080 1080">
  <defs>
    <style>
      .cls-1 {
        clip-path: url(#clippath);
      }

      .cls-2 {
        fill: none;
      }

      .cls-3 {
        fill: #1e6cdc;
      }
    </style>
    <clipPath id="clippath">
      <rect class="cls-2" x="0" y="0" width="1080" height="1080" rx="539.99946" ry="539.99946"/>
    </clipPath>
  </defs>
  <g class="cls-1">
    <path class="cls-3" d="M1026.961426,511.119507c-37.796265,17.283386-75.592468,34.566772-113.388733,51.850159-49.520935,22.644836-94.882996,48.924072-149.752869,56.370605-8.414612,1.141968-16.874329,1.93634-25.348022,2.489868-50.711914,3.312683-113.721619,2.499207-159.115967-23.644226-14.412964-8.30072-26.885498-21.410767-30.578003-37.62793,35.448303,5.842163,76.793152,9.978516,102.55188-15.06543,8.287292-8.057312,18.615417-19.698425,28.789856-14.213928,3.607422,1.94458,6.89801,6.027649,10.825073,4.856079,3.278687-.978149,4.354431-4.969421,5.146179-8.298035,4.765076-20.033325,26.602844-47.620911,50.331665-35.871216,3.662354,1.813477,6.819824,4.59375,10.626526,6.080627,4.153381,1.622192,8.939758,1.552429,13.044067-.190125,.618652-.262695,1.252563-.58783,1.615601-1.153381,.494629-.770569,.361694-1.772705,.175659-2.66925-.51947-2.503113-1.314148-4.948975-2.365234-7.279419-2.251587-4.992371-5.76947-9.907104-5.14386-15.3479,1.81604-15.794067,24.093872-14.453918,34.632874-18.956055,7.061707-3.016663,13.513-8.274353,16.240417-15.452759,3.289978-8.658997,.722839-18.28064,.280212-27.533081-.442688-9.25238,2.846619-20.369202,11.785828-22.796936,2.077209-.564148,4.261597-.580078,6.379761-.962585,36.854248-6.654907,17.306946-60.405762,19.7771-83.34613,.793945-7.373291,2.73114-14.57196,3.952698-21.886536,3.967773-23.759399-.219421-48.648865-10.995422-70.1297-5.322327-10.609497-12.300293-19.529053-20.115356-28.367004-5.26709-5.956421-14.841248-11.883911-18.183472-18.789307-3.191162-6.593323-.336121-14.846313,4.874023-19.995117,5.210144-5.148926,12.290344-7.86499,19.191833-10.320007,42.823853-15.233276,89.625244-26.759705,133.884216-37.107727,18.737549-4.38092,63.95874-17.909851,113.920044-13.728699V0H0V591.027161c14.489868-7.669739,28.979675-15.339417,43.469543-23.009155,36.732056-19.442871,73.464111-38.885803,110.196167-58.328674,48.126709-25.474243,91.890991-54.33606,146.237671-64.947205,8.33429-1.627319,16.733887-2.910156,25.161255-3.95343,50.434998-6.243469,113.386108-9.079834,160.218079,14.391235,14.869446,7.452271,28.0802,19.818115,32.705505,35.794312-35.727112-3.779846-77.242126-5.515259-101.507507,20.97821-7.806824,8.523621-17.443604,20.743225-27.918518,15.857056-3.713928-1.732422-7.235474-5.618103-11.088135-4.221069-3.216492,1.166321-4.059326,5.213196-4.657043,8.582031-3.597046,20.275696-23.800781,49.081421-48.170105,38.725403-3.761292-1.598328-7.074402-4.191162-10.960815-5.455078-4.240356-1.379028-9.014648-1.032227-13.011169,.945068-.602417,.298035-1.216431,.659363-1.546143,1.244995-.449158,.797913-.258362,1.79071-.020752,2.674927,.663513,2.468811,1.598511,4.864624,2.782715,7.130249,2.536926,4.853638,6.333496,9.556396,6.023987,15.024292-.898499,15.872742-23.216553,15.824829-33.477234,20.929626-6.875183,3.420471-13.011169,9.042908-15.318359,16.367188-2.783081,8.835022,.336853,18.29187,1.314514,27.503113s-1.662415,20.499878-10.446045,23.441101c-2.041077,.683472-4.220825,.825867-6.313354,1.330383-36.407043,8.777771-13.780151,61.30658-14.917908,84.351501-.365662,7.40686-1.882812,14.705627-2.678772,22.078674-2.585388,23.94928,3.03595,48.554504,15.03772,69.375366,5.927734,10.283508,13.410461,18.784058,21.724121,27.154602,5.603149,5.641541,15.504456,11.0047,19.240906,17.704956,3.567627,6.397461,1.195251,14.801941-3.708008,20.243835-4.90332,5.441895-11.814331,8.563416-18.562073,11.413879-41.869995,17.687378-87.925476,31.904419-131.510925,44.797791-20.319153,6.010742-72.053101,24.960571-128.299316,19.353638v81.494019H1080V486.86615c-17.679565,8.084473-35.359131,16.168884-53.038574,24.253357ZM476.582214,334.158936c-6.2724,5.736816-14.156616,12.015503-22.171997,9.494385-6.14624-1.933289-9.86554-8.792358-10.105713-15.399658-.240173-6.607361,2.766479-12.763855,5.259888-18.864075,15.093628-36.927429,63.417358-82.376831,94.257935-97.184998,75.968933-36.476807,136.620911-44.954468,179.061523-43.457825,24.206177,.853638,47.584534,1.70636,69.031616,14.40979,19.951477,11.817566,34.681274,32.992126,36.955688,56.273743,1.036438,10.609253-.246338,21.292725-1.527344,31.875183-3.708191,30.631836-20.417236,49.018616-48.014099,61.434082-12.441528,5.597351-35.273987,21.993164-48.679382,16.509399-5.517639-2.257141-8.213867-12.502197-14.015747-15.819702-7.546143-4.31488-16.810913-3.821838-25.10498-2.5271-10.580933,1.651733-22.258301,3.934998-31.295227-1.935913-8.170532-5.308044-11.707825-15.861816-19.243469-22.08313-1.668518-1.377502-3.598511-2.553223-5.730103-2.764587-5.625427-.557678-9.544006,5.284546-13.896179,9.002136-9.290405,7.93573-25.020142,5.765198-31.913574-4.403809-2.2229-3.279175-3.881775-7.433777-7.494629-8.912048-6.179199-2.528381-11.706726,4.389587-16.598083,9.039429-6.302002,5.990906-15.13446,9.061584-23.668884,8.22876-6.94281-.67749-13.485046-3.774109-20.418945-4.540588-16.865479-1.864258-31.999084,10.020813-44.688293,21.626526Zm150.985718,415.517944c-16.054382,36.52002-65.550415,80.68988-96.7677,94.68634-76.897095,34.477173-137.75,41.365479-180.137024,38.759277-24.175537-1.48645-47.523621-2.950439-68.631042-16.210449-19.635559-12.335388-33.806519-33.888-35.47113-57.22113-.758606-10.632751,.803162-21.278992,2.360596-31.824341,4.508118-30.524353,21.692383-48.467773,49.604492-60.157166,12.58374-5.27002,35.837219-21.063049,49.094604-15.230469,5.456726,2.400696,7.884033,12.712769,13.597168,16.180908,7.430725,4.510742,16.705139,4.260193,25.030273,3.182861,10.620544-1.37439,22.353577-3.35144,31.233887,2.753784,8.028931,5.52002,11.28894,16.162659,18.659302,22.578979,1.631897,1.420654,3.530457,2.646484,5.655823,2.913452,5.608887,.704712,9.678955-5.03302,14.126892-8.635498,9.494812-7.690063,25.162354-5.108765,31.787415,5.237,2.136414,3.336243,3.686035,7.532776,7.258972,9.105103,6.110962,2.689087,11.817566-4.081909,16.828857-8.602173,6.456604-5.824036,15.366333-8.662659,23.875977-7.606934,6.922729,.858887,13.381775,4.125549,20.293274,5.07312,16.810913,2.30481,32.250244-9.180359,45.238647-20.450195,6.420349-5.570801,14.466064-11.641113,22.41272-8.911194,6.093567,2.093384,9.632263,9.047424,9.699524,15.658752,.0672,6.611328-3.099426,12.687073-5.751526,18.719971Z"/>
  </g>
</svg>